<?xml version="1.0" standalone="no"?>
<!DOCTYPE svg PUBLIC "-//W3C//DTD SVG 20010904//EN"
 "http://www.w3.org/TR/2001/REC-SVG-20010904/DTD/svg10.dtd">
<svg version="1.0" xmlns="http://www.w3.org/2000/svg"
 width="243.000000pt" height="243.000000pt" viewBox="0 0 243.000000 243.000000"
 preserveAspectRatio="xMidYMid meet">
<metadata>
Created by potrace 1.14, written by Peter Selinger 2001-2017
</metadata>
<g transform="translate(0.000000,243.000000) scale(0.100000,-0.100000)"
fill="#000000" stroke="none">
<path d="M345 2298 c4 -73 8 -160 10 -193 2 -33 6 -109 10 -170 9 -138 11
-182 19 -325 4 -63 9 -140 11 -170 4 -52 8 -101 20 -310 3 -47 8 -110 10 -140
3 -30 7 -100 10 -155 4 -55 8 -125 10 -155 2 -30 7 -95 10 -145 3 -49 7 -112
10 -140 2 -27 7 -104 11 -170 4 -66 8 -131 9 -145 2 -14 3 -35 4 -47 1 -23 2
-23 152 -23 l151 0 -7 83 c-4 45 -9 152 -10 238 -5 312 51 395 320 482 60 20
658 175 775 202 16 4 438 126 510 148 l45 14 3 102 c1 55 1 101 -2 101 -4 0
-91 -35 -161 -65 -16 -8 -50 -21 -75 -30 -25 -9 -54 -21 -65 -26 -22 -10 -195
-72 -260 -94 -34 -11 -223 -54 -305 -69 -29 -5 -573 -120 -667 -140 -35 -8
-63 -12 -63 -9 0 3 48 64 108 137 153 187 201 247 366 461 81 105 152 197 159
205 39 50 421 568 465 633 l33 47 -148 0 -148 -1 -170 -227 c-149 -198 -358
-467 -427 -548 -156 -182 -236 -233 -307 -195 -67 36 -123 212 -146 462 -4 35
-8 75 -11 89 -2 14 -6 72 -10 130 -3 58 -7 116 -9 128 -2 13 -5 55 -6 93 l-2
69 -119 0 -120 0 7 -132z"/>
</g>
</svg>
